<svg xmlns="http://www.w3.org/2000/svg" viewBox="0 0 72 72" width="72" height="72" role="img" aria-label="Coala icon">
  <g shape-rendering="crispEdges">
    <rect x="14" y="12" width="44" height="4" fill="#6ad67c"/>
    <rect x="18" y="16" width="8" height="8" fill="#3f7a45"/>
    <rect x="22" y="20" width="8" height="8" fill="#61c86f"/>
    <rect x="46" y="16" width="8" height="8" fill="#3f7a45"/>
    <rect x="42" y="20" width="8" height="8" fill="#61c86f"/>

    <rect x="18" y="24" width="36" height="24" fill="#3e8349"/>
    <rect x="22" y="24" width="28" height="28" fill="#58bc68"/>
    <rect x="26" y="28" width="20" height="16" fill="#dbf7dd"/>
    <rect x="24" y="44" width="24" height="8" fill="#89e095"/>
    <rect x="28" y="48" width="16" height="6" fill="#c8f3cf"/>

    <rect x="28" y="32" width="4" height="4" fill="#224527"/>
    <rect x="40" y="32" width="4" height="4" fill="#224527"/>
    <rect x="32" y="38" width="8" height="4" fill="#2f5c36"/>
    <rect x="34" y="40" width="4" height="4" fill="#142b17"/>

    <rect x="16" y="32" width="6" height="10" fill="#4aa859"/>
    <rect x="50" y="32" width="6" height="10" fill="#4aa859"/>
    <rect x="20" y="50" width="8" height="4" fill="#3e8349"/>
    <rect x="44" y="50" width="8" height="4" fill="#3e8349"/>
  </g>
</svg>
