<svg xmlns="http://www.w3.org/2000/svg" viewBox="0 0 72 72" width="72" height="72" role="img" aria-label="KareBare icon">
  <g shape-rendering="crispEdges">
    <rect x="14" y="12" width="44" height="4" fill="#5da0ff"/>
    <rect x="18" y="16" width="8" height="8" fill="#356bc7"/>
    <rect x="22" y="20" width="8" height="8" fill="#6aaeff"/>
    <rect x="46" y="16" width="8" height="8" fill="#356bc7"/>
    <rect x="42" y="20" width="8" height="8" fill="#6aaeff"/>

    <rect x="18" y="24" width="36" height="24" fill="#356bc7"/>
    <rect x="22" y="24" width="28" height="28" fill="#5797f7"/>
    <rect x="26" y="28" width="20" height="16" fill="#dbebff"/>
    <rect x="24" y="44" width="24" height="8" fill="#8dc0ff"/>
    <rect x="28" y="48" width="16" height="6" fill="#d8ebff"/>

    <rect x="28" y="32" width="4" height="4" fill="#264a88"/>
    <rect x="40" y="32" width="4" height="4" fill="#264a88"/>
    <rect x="30" y="38" width="12" height="4" fill="#2f5ca4"/>
    <rect x="34" y="40" width="4" height="4" fill="#102140"/>
    <rect x="24" y="30" width="4" height="4" fill="#8dc0ff"/>
    <rect x="44" y="30" width="4" height="4" fill="#8dc0ff"/>
  </g>
</svg>
