<svg xmlns="http://www.w3.org/2000/svg" viewBox="0 0 72 72" width="72" height="72" role="img" aria-label="Resume icon">
  <g shape-rendering="crispEdges">
    <rect x="14" y="14" width="8" height="6" fill="#7ec8ff"/>
    <rect x="24" y="14" width="8" height="6" fill="#ffb347"/>
    <rect x="34" y="14" width="8" height="6" fill="#7ec8ff"/>
    <rect x="44" y="14" width="8" height="6" fill="#ffb347"/>
    <rect x="54" y="14" width="4" height="6" fill="#7ec8ff"/>

    <rect x="24" y="18" width="18" height="28" fill="#d9d4c6"/>
    <rect x="22" y="16" width="18" height="28" fill="#ece6d8"/>
    <rect x="20" y="14" width="18" height="28" fill="#f6f1e5"/>
    <rect x="18" y="12" width="18" height="28" fill="#fffaf0"/>
    <rect x="30" y="12" width="6" height="6" fill="#e0dccf"/>
    <rect x="28" y="20" width="12" height="2" fill="#4b4b50"/>
    <rect x="28" y="25" width="12" height="2" fill="#4b4b50"/>
    <rect x="28" y="30" width="12" height="2" fill="#4b4b50"/>
    <rect x="28" y="35" width="8" height="2" fill="#4b4b50"/>
    <rect x="22" y="12" width="8" height="8" fill="#7ec8ff"/>

    <rect x="36" y="24" width="10" height="16" fill="#4b4b50"/>
    <rect x="38" y="22" width="10" height="16" fill="#6a6a70"/>
    <rect x="40" y="20" width="8" height="14" fill="#8f8f97"/>
    <rect x="42" y="18" width="6" height="12" fill="#b7b7bf"/>

    <rect x="26" y="42" width="16" height="4" fill="#7ec8ff"/>
    <rect x="28" y="44" width="12" height="4" fill="#ffb347"/>
    <rect x="30" y="46" width="8" height="4" fill="#4b4b50"/>
  </g>
</svg>
